<?xml version="1.0" standalone="no"?>
<!DOCTYPE svg PUBLIC "-//W3C//DTD SVG 20010904//EN"
 "http://www.w3.org/TR/2001/REC-SVG-20010904/DTD/svg10.dtd">
<svg version="1.0" xmlns="http://www.w3.org/2000/svg"
 width="959.000000pt" height="925.000000pt" viewBox="0 0 959.000000 925.000000"
 preserveAspectRatio="xMidYMid meet">

<g transform="translate(0.000000,925.000000) scale(0.100000,-0.100000)"
fill="#000000" stroke="none">
<path d="M760 7292 l0 -79 93 -6 c225 -15 397 -105 503 -262 19 -27 65 -129
103 -225 77 -197 451 -1239 451 -1258 0 -9 -96 -12 -405 -12 l-405 0 0 -170 0
-170 471 -2 471 -3 184 -515 c101 -283 184 -516 184 -517 0 -2 -295 -3 -655
-3 l-655 0 0 -175 0 -175 718 0 718 0 400 -1115 399 -1115 75 0 75 0 364 1032
c200 568 378 1070 394 1116 l30 82 514 -2 515 -3 142 -400 c78 -220 257 -721
396 -1113 l254 -713 85 3 84 3 223 645 c123 355 287 827 364 1050 77 223 149
433 161 468 l21 62 694 0 694 0 0 175 0 175 -633 0 -633 0 179 520 180 520
454 0 453 0 0 170 0 170 -394 2 -393 3 118 345 c254 736 337 957 396 1060 21
36 76 104 123 151 70 70 102 94 170 127 89 43 200 72 276 72 l44 0 0 80 0 80
-855 0 -855 0 0 -78 0 -79 118 -6 c135 -7 291 -43 358 -82 104 -61 154 -151
154 -275 0 -151 -64 -381 -278 -1000 l-137 -395 -873 -3 -873 -2 -14 33 c-38
91 -270 757 -310 889 -25 84 -57 208 -71 277 -55 270 -5 432 159 510 82 39
155 51 304 51 l123 0 0 80 0 80 -1110 0 -1110 0 0 -78 0 -79 103 -6 c78 -4
122 -13 183 -35 148 -54 239 -127 332 -264 104 -155 147 -252 316 -728 91
-256 166 -472 166 -481 0 -13 -54 -181 -75 -231 -7 -17 -58 -18 -880 -18
l-872 0 -21 58 c-105 287 -311 886 -347 1004 -61 203 -78 295 -73 387 13 207
163 310 456 311 l102 0 0 80 0 80 -1060 0 -1060 0 0 -78z m3622 -2187 c2 -3
-76 -237 -175 -520 l-181 -515 -390 0 -391 0 -178 508 c-97 279 -177 513 -177
520 0 9 155 12 743 12 409 0 746 -2 749 -5z m427 -12 c10 -20 361 -1007 361
-1017 0 -3 -174 -6 -386 -6 -311 0 -385 3 -382 13 2 7 84 241 182 520 147 416
182 507 197 507 10 0 22 -8 28 -17z m2331 10 c0 -5 -79 -239 -176 -520 l-177
-513 -391 0 -391 0 -180 507 c-99 278 -181 512 -183 519 -3 12 121 14 747 14
413 0 751 -3 751 -7z m-3240 -1388 c0 -11 -253 -731 -259 -738 -4 -4 -42 91
-84 210 -42 120 -101 289 -131 376 l-55 157 264 0 c146 0 265 -2 265 -5z
m2760 -2 c0 -23 -254 -743 -260 -736 -4 4 -49 125 -100 268 -51 143 -110 308
-131 368 l-38 107 264 0 c146 0 265 -3 265 -7z"/>
</g>
</svg>
